<mxfile host="app.diagrams.net" modified="2023-05-11T03:19:13.251Z" agent="5.0 (Windows NT 10.0; Win64; x64) AppleWebKit/537.36 (KHTML, like Gecko) Chrome/113.0.0.0 Safari/537.36" etag="3aha-cOm_QW5Gx9NyAOX" version="21.0.10" type="github">
  <diagram id="C5RBs43oDa-KdzZeNtuy" name="Page-1">
    <mxGraphModel dx="1209" dy="1613" grid="1" gridSize="10" guides="1" tooltips="1" connect="1" arrows="1" fold="1" page="1" pageScale="1" pageWidth="827" pageHeight="1169" math="0" shadow="0">
      <root>
        <mxCell id="WIyWlLk6GJQsqaUBKTNV-0" />
        <mxCell id="WIyWlLk6GJQsqaUBKTNV-1" parent="WIyWlLk6GJQsqaUBKTNV-0" />
        <mxCell id="bUTFh6sMlRF14kbk2jll-3" style="edgeStyle=none;curved=1;rounded=0;orthogonalLoop=1;jettySize=auto;html=1;entryX=0.5;entryY=0;entryDx=0;entryDy=0;fontSize=12;startSize=8;endSize=8;" edge="1" parent="WIyWlLk6GJQsqaUBKTNV-1" source="bUTFh6sMlRF14kbk2jll-0">
          <mxGeometry relative="1" as="geometry">
            <mxPoint x="220" y="80" as="targetPoint" />
          </mxGeometry>
        </mxCell>
        <mxCell id="bUTFh6sMlRF14kbk2jll-0" value="start" style="ellipse;whiteSpace=wrap;html=1;fontSize=16;" vertex="1" parent="WIyWlLk6GJQsqaUBKTNV-1">
          <mxGeometry x="175" width="90" height="40" as="geometry" />
        </mxCell>
        <mxCell id="bUTFh6sMlRF14kbk2jll-7" value="Medical Reimbursement Business Process" style="text;html=1;strokeColor=none;fillColor=none;align=center;verticalAlign=middle;whiteSpace=wrap;rounded=0;fontSize=16;fontStyle=1" vertex="1" parent="WIyWlLk6GJQsqaUBKTNV-1">
          <mxGeometry x="55" y="-80" width="330" height="30" as="geometry" />
        </mxCell>
        <mxCell id="bUTFh6sMlRF14kbk2jll-14" style="edgeStyle=none;curved=1;rounded=0;orthogonalLoop=1;jettySize=auto;html=1;entryX=0.5;entryY=0;entryDx=0;entryDy=0;fontSize=12;startSize=8;endSize=8;" edge="1" parent="WIyWlLk6GJQsqaUBKTNV-1" source="bUTFh6sMlRF14kbk2jll-8" target="bUTFh6sMlRF14kbk2jll-12">
          <mxGeometry relative="1" as="geometry" />
        </mxCell>
        <mxCell id="bUTFh6sMlRF14kbk2jll-8" value="&lt;font style=&quot;font-size: 11px;&quot;&gt;Create Medical Request&lt;/font&gt;" style="rounded=1;whiteSpace=wrap;html=1;fontSize=16;" vertex="1" parent="WIyWlLk6GJQsqaUBKTNV-1">
          <mxGeometry x="165" y="80" width="110" height="50" as="geometry" />
        </mxCell>
        <mxCell id="bUTFh6sMlRF14kbk2jll-9" value="&lt;font size=&quot;1&quot;&gt;Employee&lt;/font&gt;" style="shape=document;whiteSpace=wrap;html=1;boundedLbl=1;fontSize=16;" vertex="1" parent="WIyWlLk6GJQsqaUBKTNV-1">
          <mxGeometry x="148" y="122" width="50" height="32" as="geometry" />
        </mxCell>
        <mxCell id="bUTFh6sMlRF14kbk2jll-18" style="edgeStyle=none;curved=1;rounded=0;orthogonalLoop=1;jettySize=auto;html=1;entryX=0.5;entryY=0;entryDx=0;entryDy=0;fontSize=12;startSize=8;endSize=8;" edge="1" parent="WIyWlLk6GJQsqaUBKTNV-1" source="bUTFh6sMlRF14kbk2jll-40" target="bUTFh6sMlRF14kbk2jll-15">
          <mxGeometry relative="1" as="geometry" />
        </mxCell>
        <mxCell id="bUTFh6sMlRF14kbk2jll-12" value="&lt;font style=&quot;font-size: 11px;&quot;&gt;Send Medical Request to HR&lt;/font&gt;" style="rounded=1;whiteSpace=wrap;html=1;fontSize=16;" vertex="1" parent="WIyWlLk6GJQsqaUBKTNV-1">
          <mxGeometry x="165" y="166" width="110" height="50" as="geometry" />
        </mxCell>
        <mxCell id="bUTFh6sMlRF14kbk2jll-13" value="&lt;font size=&quot;1&quot;&gt;Employee&lt;/font&gt;" style="shape=document;whiteSpace=wrap;html=1;boundedLbl=1;fontSize=16;" vertex="1" parent="WIyWlLk6GJQsqaUBKTNV-1">
          <mxGeometry x="149" y="210" width="50" height="32" as="geometry" />
        </mxCell>
        <mxCell id="bUTFh6sMlRF14kbk2jll-15" value="&lt;span style=&quot;font-size: 11px;&quot;&gt;Response and Check the Medical Request&lt;/span&gt;" style="rounded=1;whiteSpace=wrap;html=1;fontSize=16;" vertex="1" parent="WIyWlLk6GJQsqaUBKTNV-1">
          <mxGeometry x="157.5" y="380" width="125" height="70" as="geometry" />
        </mxCell>
        <mxCell id="bUTFh6sMlRF14kbk2jll-16" value="&lt;font size=&quot;1&quot;&gt;HR Med&lt;/font&gt;" style="shape=document;whiteSpace=wrap;html=1;boundedLbl=1;fontSize=16;" vertex="1" parent="WIyWlLk6GJQsqaUBKTNV-1">
          <mxGeometry x="146" y="439" width="50" height="32" as="geometry" />
        </mxCell>
        <mxCell id="bUTFh6sMlRF14kbk2jll-38" value="" style="edgeStyle=none;curved=1;rounded=0;orthogonalLoop=1;jettySize=auto;html=1;fontSize=12;startSize=8;endSize=8;" edge="1" parent="WIyWlLk6GJQsqaUBKTNV-1" source="bUTFh6sMlRF14kbk2jll-19">
          <mxGeometry relative="1" as="geometry">
            <mxPoint x="60" y="665" as="targetPoint" />
          </mxGeometry>
        </mxCell>
        <mxCell id="bUTFh6sMlRF14kbk2jll-19" value="IsApproved?" style="rhombus;whiteSpace=wrap;html=1;fontSize=11;" vertex="1" parent="WIyWlLk6GJQsqaUBKTNV-1">
          <mxGeometry y="530" width="120" height="80" as="geometry" />
        </mxCell>
        <mxCell id="bUTFh6sMlRF14kbk2jll-36" style="edgeStyle=none;rounded=1;orthogonalLoop=1;jettySize=auto;html=1;entryX=1;entryY=0.5;entryDx=0;entryDy=0;fontSize=12;startSize=8;endSize=8;" edge="1" parent="WIyWlLk6GJQsqaUBKTNV-1" source="bUTFh6sMlRF14kbk2jll-20" target="bUTFh6sMlRF14kbk2jll-8">
          <mxGeometry relative="1" as="geometry">
            <Array as="points">
              <mxPoint x="220" y="530" />
              <mxPoint x="220" y="640" />
              <mxPoint x="390" y="640" />
              <mxPoint x="530" y="640" />
              <mxPoint x="530" y="530" />
              <mxPoint x="530" y="310" />
              <mxPoint x="530" y="105" />
            </Array>
          </mxGeometry>
        </mxCell>
        <mxCell id="bUTFh6sMlRF14kbk2jll-20" value="IsRejected" style="rhombus;whiteSpace=wrap;html=1;fontSize=11;" vertex="1" parent="WIyWlLk6GJQsqaUBKTNV-1">
          <mxGeometry x="160" y="530" width="120" height="80" as="geometry" />
        </mxCell>
        <mxCell id="bUTFh6sMlRF14kbk2jll-33" style="edgeStyle=none;rounded=1;orthogonalLoop=1;jettySize=auto;html=1;entryX=1;entryY=0.5;entryDx=0;entryDy=0;fontSize=12;startSize=8;endSize=8;" edge="1" parent="WIyWlLk6GJQsqaUBKTNV-1" source="bUTFh6sMlRF14kbk2jll-21" target="bUTFh6sMlRF14kbk2jll-31">
          <mxGeometry relative="1" as="geometry">
            <Array as="points">
              <mxPoint x="520" y="570" />
              <mxPoint x="520" y="460" />
              <mxPoint x="520" y="190" />
            </Array>
          </mxGeometry>
        </mxCell>
        <mxCell id="bUTFh6sMlRF14kbk2jll-21" value="IsDraft?" style="rhombus;whiteSpace=wrap;html=1;fontSize=11;" vertex="1" parent="WIyWlLk6GJQsqaUBKTNV-1">
          <mxGeometry x="330" y="530" width="120" height="80" as="geometry" />
        </mxCell>
        <mxCell id="bUTFh6sMlRF14kbk2jll-24" value="" style="endArrow=none;html=1;rounded=0;fontSize=12;startSize=8;endSize=8;curved=1;" edge="1" parent="WIyWlLk6GJQsqaUBKTNV-1">
          <mxGeometry width="50" height="50" relative="1" as="geometry">
            <mxPoint x="60" y="490" as="sourcePoint" />
            <mxPoint x="390" y="490" as="targetPoint" />
          </mxGeometry>
        </mxCell>
        <mxCell id="bUTFh6sMlRF14kbk2jll-25" value="" style="endArrow=none;html=1;rounded=0;fontSize=12;startSize=8;endSize=8;curved=1;entryX=0.5;entryY=1;entryDx=0;entryDy=0;" edge="1" parent="WIyWlLk6GJQsqaUBKTNV-1" target="bUTFh6sMlRF14kbk2jll-15">
          <mxGeometry width="50" height="50" relative="1" as="geometry">
            <mxPoint x="220" y="490" as="sourcePoint" />
            <mxPoint x="250" y="480" as="targetPoint" />
          </mxGeometry>
        </mxCell>
        <mxCell id="bUTFh6sMlRF14kbk2jll-26" value="" style="endArrow=classic;html=1;rounded=0;fontSize=12;startSize=8;endSize=8;curved=1;entryX=0.5;entryY=0;entryDx=0;entryDy=0;" edge="1" parent="WIyWlLk6GJQsqaUBKTNV-1" target="bUTFh6sMlRF14kbk2jll-19">
          <mxGeometry width="50" height="50" relative="1" as="geometry">
            <mxPoint x="60" y="490" as="sourcePoint" />
            <mxPoint x="250" y="480" as="targetPoint" />
          </mxGeometry>
        </mxCell>
        <mxCell id="bUTFh6sMlRF14kbk2jll-27" value="" style="endArrow=classic;html=1;rounded=0;fontSize=12;startSize=8;endSize=8;curved=1;entryX=0.5;entryY=0;entryDx=0;entryDy=0;" edge="1" parent="WIyWlLk6GJQsqaUBKTNV-1" target="bUTFh6sMlRF14kbk2jll-20">
          <mxGeometry width="50" height="50" relative="1" as="geometry">
            <mxPoint x="220" y="490" as="sourcePoint" />
            <mxPoint x="250" y="480" as="targetPoint" />
          </mxGeometry>
        </mxCell>
        <mxCell id="bUTFh6sMlRF14kbk2jll-28" value="" style="endArrow=classic;html=1;rounded=0;fontSize=12;startSize=8;endSize=8;curved=1;entryX=0.5;entryY=0;entryDx=0;entryDy=0;" edge="1" parent="WIyWlLk6GJQsqaUBKTNV-1" target="bUTFh6sMlRF14kbk2jll-21">
          <mxGeometry width="50" height="50" relative="1" as="geometry">
            <mxPoint x="390" y="490" as="sourcePoint" />
            <mxPoint x="250" y="480" as="targetPoint" />
          </mxGeometry>
        </mxCell>
        <mxCell id="bUTFh6sMlRF14kbk2jll-35" style="edgeStyle=none;curved=1;rounded=0;orthogonalLoop=1;jettySize=auto;html=1;entryX=1;entryY=0.5;entryDx=0;entryDy=0;fontSize=12;startSize=8;endSize=8;" edge="1" parent="WIyWlLk6GJQsqaUBKTNV-1" source="bUTFh6sMlRF14kbk2jll-31" target="bUTFh6sMlRF14kbk2jll-12">
          <mxGeometry relative="1" as="geometry" />
        </mxCell>
        <mxCell id="bUTFh6sMlRF14kbk2jll-31" value="&lt;font style=&quot;font-size: 11px;&quot;&gt;Revise Medical Requet&lt;/font&gt;" style="rounded=1;whiteSpace=wrap;html=1;fontSize=16;" vertex="1" parent="WIyWlLk6GJQsqaUBKTNV-1">
          <mxGeometry x="340" y="166" width="110" height="50" as="geometry" />
        </mxCell>
        <mxCell id="bUTFh6sMlRF14kbk2jll-32" value="&lt;font size=&quot;1&quot;&gt;Employee&lt;/font&gt;" style="shape=document;whiteSpace=wrap;html=1;boundedLbl=1;fontSize=16;" vertex="1" parent="WIyWlLk6GJQsqaUBKTNV-1">
          <mxGeometry x="330" y="210" width="50" height="32" as="geometry" />
        </mxCell>
        <mxCell id="bUTFh6sMlRF14kbk2jll-39" value="&lt;span style=&quot;font-size: 11px;&quot;&gt;Cutting Employee Pagu&lt;/span&gt;" style="rounded=1;whiteSpace=wrap;html=1;fontSize=16;" vertex="1" parent="WIyWlLk6GJQsqaUBKTNV-1">
          <mxGeometry x="5" y="665" width="110" height="60" as="geometry" />
        </mxCell>
        <mxCell id="bUTFh6sMlRF14kbk2jll-41" value="" style="edgeStyle=none;curved=1;rounded=0;orthogonalLoop=1;jettySize=auto;html=1;entryX=0.5;entryY=0;entryDx=0;entryDy=0;fontSize=12;startSize=8;endSize=8;" edge="1" parent="WIyWlLk6GJQsqaUBKTNV-1" source="bUTFh6sMlRF14kbk2jll-12" target="bUTFh6sMlRF14kbk2jll-40">
          <mxGeometry relative="1" as="geometry">
            <mxPoint x="220" y="216" as="sourcePoint" />
            <mxPoint x="220" y="380" as="targetPoint" />
          </mxGeometry>
        </mxCell>
        <mxCell id="bUTFh6sMlRF14kbk2jll-40" value="&lt;font style=&quot;font-size: 11px;&quot;&gt;Allocating Employee Pagu&lt;/font&gt;" style="rounded=1;whiteSpace=wrap;html=1;fontSize=16;" vertex="1" parent="WIyWlLk6GJQsqaUBKTNV-1">
          <mxGeometry x="165" y="270" width="110" height="50" as="geometry" />
        </mxCell>
        <mxCell id="bUTFh6sMlRF14kbk2jll-42" value="&lt;font size=&quot;1&quot;&gt;System&lt;/font&gt;" style="shape=document;whiteSpace=wrap;html=1;boundedLbl=1;fontSize=16;" vertex="1" parent="WIyWlLk6GJQsqaUBKTNV-1">
          <mxGeometry x="146" y="310" width="50" height="32" as="geometry" />
        </mxCell>
        <mxCell id="bUTFh6sMlRF14kbk2jll-43" value="&lt;font size=&quot;1&quot;&gt;System&lt;/font&gt;" style="shape=document;whiteSpace=wrap;html=1;boundedLbl=1;fontSize=16;" vertex="1" parent="WIyWlLk6GJQsqaUBKTNV-1">
          <mxGeometry x="-10" y="710" width="50" height="32" as="geometry" />
        </mxCell>
      </root>
    </mxGraphModel>
  </diagram>
</mxfile>
